<?xml version="1.0" encoding="UTF-8" standalone="no"?>
<svg xmlns="http://www.w3.org/2000/svg" viewBox="0 0 32 32" width="32" height="32">
  <g>
    <path fill="#9B5DE5" d="M11.1,13c-0.8,0-1.5-0.1-2.1-0.4c-0.6-0.2-1-0.6-1.4-1c-0.3-0.4-0.6-0.9-0.7-1.5
      c-0.2-0.6-0.2-1.2-0.2-1.9c0-0.7,0.1-1.3,0.2-1.9c0.2-0.6,0.4-1.1,0.8-1.5c0.3-0.4,0.8-0.8,1.3-1c0.5-0.2,1.2-0.4,2-0.4
      c0.3,0,0.6,0,0.9,0.1c0.3,0,0.5,0.1,0.7,0.2c0.2,0.1,0.4,0.2,0.6,0.2c0.2,0.1,0.3,0.2,0.5,0.3l-0.8,1.9c-0.2-0.2-0.5-0.3-0.9-0.4
      c-0.3-0.1-0.7-0.2-1.2-0.2c-0.3,0-0.6,0.1-0.9,0.2c-0.3,0.1-0.5,0.3-0.7,0.5c-0.2,0.2-0.3,0.5-0.4,0.8c-0.1,0.3-0.1,0.6-0.1,1
      c0,0.7,0.2,1.3,0.5,1.8c0.4,0.5,0.9,0.7,1.7,0.7c0.2,0,0.5,0,0.6,0c0.2,0,0.4-0.1,0.5-0.1v-1.5h-1.4V7.4h3.5v4
      c-0.2,0.1-0.6,0.3-1,0.4C12.3,13,11.7,13,11.1,13z"/>
    <path fill="#9B5DE5" d="M19.7,5.6v1.9h-2.8v1h2.6v1.8h-2.6v1.1h2.8v1.9h-5V5.6H19.7z"/>
    <path fill="#9B5DE5" d="M25.1,13.3c-1.5,0-2.6-0.4-3.3-1.1c-0.7-0.8-1.1-1.9-1.1-3.4c0-0.7,0.1-1.4,0.3-1.9
      c0.2-0.6,0.5-1,0.9-1.4c0.4-0.4,0.8-0.7,1.4-0.9c0.5-0.2,1.2-0.3,1.8-0.3c0.4,0,0.7,0,1,0.1c0.3,0.1,0.6,0.1,0.9,0.2
      c0.3,0.1,0.5,0.2,0.7,0.3c0.2,0.1,0.4,0.2,0.5,0.3l-1,1.8c-0.2-0.2-0.5-0.3-0.9-0.5c-0.3-0.1-0.7-0.2-1.1-0.2
      c-0.6,0-1.1,0.2-1.4,0.6c-0.3,0.4-0.5,1.1-0.5,1.9c0,0.8,0.2,1.4,0.5,1.9c0.3,0.4,0.9,0.6,1.6,0.6c0.2,0,0.4,0,0.6,0
      c0.2,0,0.3-0.1,0.4-0.1V9.6h-1.2V7.8h3.2v4.1c-0.2,0.1-0.4,0.2-0.7,0.3c-0.2,0.1-0.5,0.2-0.8,0.3c-0.3,0.1-0.6,0.1-1,0.2
      C26,13.3,25.5,13.3,25.1,13.3z"/>
    <path fill="#9B5DE5" d="M25.1,22c-1.1,0-2.1-0.3-2.8-0.8c-0.7-0.6-1.2-1.4-1.4-2.4l2.2-0.4c0.1,0.5,0.3,1,0.6,1.2
      c0.3,0.3,0.8,0.4,1.3,0.4c0.4,0,0.8-0.1,1-0.3c0.2-0.2,0.4-0.4,0.4-0.7c0-0.3-0.1-0.5-0.4-0.7c-0.3-0.2-0.8-0.4-1.6-0.6
      c-0.6-0.1-1.1-0.3-1.5-0.5c-0.4-0.2-0.8-0.4-1-0.6c-0.3-0.2-0.5-0.5-0.6-0.8c-0.1-0.3-0.2-0.6-0.2-1c0-0.5,0.1-0.9,0.3-1.2
      c0.2-0.4,0.4-0.7,0.8-0.9c0.3-0.3,0.7-0.4,1.1-0.6c0.4-0.1,0.9-0.2,1.4-0.2c1,0,1.9,0.3,2.5,0.8c0.7,0.5,1.1,1.2,1.2,2.1l-2.2,0.4
      c-0.1-0.4-0.2-0.8-0.5-1c-0.3-0.2-0.6-0.3-1.1-0.3c-0.4,0-0.6,0.1-0.9,0.2c-0.2,0.2-0.3,0.4-0.3,0.6c0,0.1,0,0.2,0.1,0.3
      c0.1,0.1,0.1,0.2,0.3,0.3c0.1,0.1,0.3,0.1,0.4,0.2c0.2,0.1,0.4,0.1,0.6,0.2c0.7,0.2,1.3,0.4,1.8,0.5c0.5,0.2,0.9,0.4,1.2,0.6
      c0.3,0.2,0.5,0.5,0.7,0.8c0.1,0.3,0.2,0.7,0.2,1.1c0,0.5-0.1,0.9-0.3,1.3c-0.2,0.4-0.5,0.7-0.8,0.9c-0.3,0.3-0.8,0.4-1.2,0.6
      C26.1,21.9,25.6,22,25.1,22z"/>
  </g>
</svg>
